<?xml version="1.0" standalone="no"?>
<!DOCTYPE svg PUBLIC "-//W3C//DTD SVG 20010904//EN"
 "http://www.w3.org/TR/2001/REC-SVG-20010904/DTD/svg10.dtd">
<svg version="1.0" xmlns="http://www.w3.org/2000/svg"
 width="1217.000000pt" height="340.000000pt" viewBox="0 0 1217.000000 340.000000"
 preserveAspectRatio="xMidYMid meet">

<g transform="translate(0.000000,340.000000) scale(0.100000,-0.100000)"
fill="#000000" stroke="none">
<path d="M510 3321 c-41 -10 -100 -29 -130 -43 -161 -74 -291 -251 -325 -443
-12 -65 -14 -2211 -3 -2285 23 -144 74 -248 172 -344 71 -71 101 -90 226 -143
l65 -28 1130 -3 c661 -1 1155 1 1190 7 161 25 327 126 411 251 33 49 64 112
64 129 0 6 4 19 9 29 29 53 31 139 31 1248 0 1123 -1 1154 -31 1229 -4 11 -11
31 -15 45 -11 41 -86 152 -129 193 -55 53 -141 110 -195 130 -130 47 -125 47
-1295 46 -1010 -1 -1106 -2 -1175 -18z m1503 -933 c-2 -26 -26 -125 -43 -178
-6 -19 -18 -64 -26 -100 -22 -94 -38 -160 -74 -295 -17 -66 -35 -138 -40 -160
-8 -39 -34 -138 -85 -325 -23 -87 -32 -123 -70 -280 -7 -30 -22 -80 -32 -110
l-18 -55 -113 -5 c-71 -3 -117 -1 -122 5 -9 10 5 76 34 172 9 28 21 71 26 95
9 42 21 89 55 213 40 149 111 417 130 495 8 30 18 71 24 90 5 19 21 82 35 140
15 58 35 134 46 170 11 36 23 81 26 100 4 19 10 40 15 45 4 6 54 9 121 8 111
-2 113 -3 111 -25z m-775 -435 l-3 -137 -45 -17 c-25 -10 -81 -32 -125 -50
-44 -17 -96 -38 -115 -45 -110 -41 -135 -53 -133 -60 1 -5 21 -14 45 -20 53
-14 272 -101 348 -138 25 -12 25 -13 28 -154 2 -113 0 -142 -11 -142 -7 0 -17
4 -23 9 -5 4 -31 16 -59 26 -27 10 -54 22 -60 25 -5 4 -21 11 -35 15 -21 7
-73 28 -155 65 -11 5 -49 21 -85 36 -104 42 -193 90 -217 115 -75 83 -70 238
11 314 44 41 75 65 84 65 4 1 25 9 47 20 22 11 43 19 47 20 6 0 149 58 233 95
119 52 154 67 180 80 17 7 34 14 38 14 4 1 6 -61 5 -136z m978 103 c537 -218
590 -249 616 -364 26 -120 -29 -223 -151 -279 -30 -14 -60 -26 -65 -27 -6 -2
-27 -10 -46 -19 -19 -9 -100 -43 -180 -77 -80 -33 -164 -70 -188 -80 -23 -11
-47 -20 -52 -20 -6 0 -10 57 -10 144 l0 145 55 20 c30 11 63 25 72 30 10 5 38
17 63 27 25 10 68 27 95 39 28 12 71 28 98 35 43 11 64 30 35 30 -16 0 -112
37 -159 61 -20 11 -42 19 -48 19 -7 0 -31 8 -54 18 -23 11 -68 29 -99 42 l-58
22 0 129 c0 71 4 129 8 129 5 0 35 -11 68 -24z"/>
<path d="M4072 1703 l3 -808 375 -3 c404 -2 461 3 588 52 152 60 283 180 355
325 26 51 47 101 47 110 0 9 4 21 9 26 13 15 41 198 41 270 0 91 -28 269 -50
321 -11 24 -19 48 -19 52 0 12 -45 107 -53 110 -5 2 -8 10 -8 18 0 8 -4 14
-10 14 -5 0 -10 6 -10 13 0 21 -120 140 -185 184 -33 22 -82 48 -110 58 -27 9
-59 21 -70 26 -62 27 -149 33 -518 36 l-387 4 2 -808z m695 482 c165 -34 266
-133 320 -310 26 -86 25 -297 -1 -380 -10 -33 -27 -72 -37 -87 -11 -14 -19
-30 -19 -35 0 -16 -82 -92 -126 -117 -67 -38 -171 -56 -325 -56 l-139 0 0 500
0 500 128 0 c75 0 157 -6 199 -15z"/>
<path d="M8390 1700 l0 -810 515 0 515 0 0 155 0 155 -335 0 -335 0 0 655 0
655 -180 0 -180 0 0 -810z"/>
<path d="M6135 2164 c-109 -18 -235 -77 -306 -145 -29 -28 -109 -132 -109
-143 0 -4 -11 -31 -24 -60 -35 -76 -48 -144 -53 -281 -7 -164 19 -278 87 -395
48 -81 87 -122 170 -176 148 -96 387 -127 582 -76 62 16 161 68 202 106 21 19
42 37 45 38 10 5 85 129 105 175 10 23 15 46 12 52 -5 7 -65 11 -176 11 -160
0 -169 -1 -175 -20 -10 -32 -91 -87 -146 -100 -64 -16 -164 -8 -209 15 -77 39
-124 114 -144 228 l-7 37 437 0 437 0 -6 108 c-17 323 -156 526 -415 606 -53
17 -248 29 -307 20z m232 -285 c76 -42 118 -102 130 -186 l6 -43 -252 0 c-284
0 -267 -6 -233 81 25 65 60 113 106 143 35 23 51 26 123 26 65 0 90 -4 120
-21z"/>
<path d="M9980 2163 c-24 -3 -49 -8 -55 -13 -5 -4 -25 -11 -43 -15 -41 -8 -88
-31 -129 -61 -17 -13 -34 -24 -36 -24 -12 0 -100 -98 -125 -139 -77 -128 -102
-227 -102 -402 0 -101 11 -181 37 -264 24 -76 114 -206 175 -252 61 -47 126
-83 148 -83 9 0 20 -4 26 -9 25 -22 116 -36 239 -35 113 1 140 4 208 28 43 14
97 36 119 47 57 29 181 156 212 216 70 140 96 295 76 469 -7 63 -16 117 -21
120 -5 3 -9 13 -9 22 0 20 -55 135 -78 165 -34 41 -108 113 -134 130 -100 63
-147 80 -258 97 -56 8 -170 10 -250 3z m194 -298 c85 -25 116 -58 177 -189 23
-48 19 -278 -5 -341 -45 -116 -115 -165 -240 -165 -41 0 -78 5 -81 10 -3 6
-14 10 -23 10 -27 0 -90 67 -113 119 -25 57 -37 173 -28 282 11 142 71 237
174 273 53 19 76 19 139 1z"/>
<path d="M11320 2160 c-72 -13 -157 -49 -208 -87 -73 -56 -100 -90 -170 -218
-36 -67 -53 -176 -53 -343 1 -203 49 -342 157 -454 47 -49 124 -108 141 -108
4 0 21 -7 37 -15 43 -23 170 -38 253 -30 89 8 178 48 241 110 l47 44 3 -67 c6
-119 -31 -231 -90 -275 -53 -38 -98 -52 -178 -52 -114 0 -189 38 -225 114 -22
47 -13 45 -140 22 -33 -6 -95 -16 -137 -23 -57 -9 -78 -16 -78 -27 0 -8 14
-44 32 -79 39 -77 130 -166 209 -204 92 -45 231 -78 327 -78 67 0 210 18 232
30 9 4 31 11 49 15 146 32 280 167 323 325 39 140 39 152 36 780 l-3 615 -175
0 -175 0 -3 -78 -3 -79 -52 54 c-29 29 -70 62 -92 72 -22 10 -48 23 -59 28
-26 13 -191 19 -246 8z m268 -295 c24 -9 57 -25 73 -38 134 -98 149 -438 26
-571 -62 -67 -189 -86 -283 -42 -104 48 -149 147 -149 326 0 114 16 175 64
240 62 86 169 119 269 85z"/>
<path d="M6910 2143 c0 -10 6 -29 13 -43 7 -14 23 -56 36 -95 27 -84 69 -198
87 -242 8 -17 14 -35 14 -39 0 -5 11 -38 24 -74 14 -36 37 -99 51 -140 15 -41
31 -84 36 -95 4 -11 18 -49 29 -85 12 -36 26 -75 31 -87 21 -52 28 -71 49
-133 12 -36 25 -74 30 -85 22 -56 39 -102 44 -117 5 -16 24 -18 210 -18 l205
0 11 43 c6 23 18 56 26 74 8 17 14 36 14 42 0 6 4 19 9 29 20 40 90 233 114
315 6 20 15 37 19 37 4 0 8 7 8 15 0 9 9 41 21 73 11 31 36 102 56 157 19 55
38 109 43 120 23 57 90 243 90 251 1 5 9 27 20 49 11 22 19 46 20 53 0 9 -45
12 -194 12 l-194 0 -32 -102 c-17 -57 -35 -114 -40 -128 -12 -36 -55 -182 -81
-270 -11 -41 -29 -102 -40 -135 -22 -72 -55 -190 -63 -227 -10 -43 -22 -33
-33 25 -11 52 -17 73 -48 177 -9 30 -23 82 -31 115 -8 33 -18 70 -21 83 -3 12
-9 25 -14 28 -5 3 -9 14 -9 24 0 11 -6 39 -14 62 -14 44 -62 202 -89 293 l-14
50 -197 3 c-182 2 -196 1 -196 -15z"/>
</g>
</svg>
