<?xml version="1.0" encoding="UTF-8" standalone="no"?>
<svg
   xmlns:dc="http://purl.org/dc/elements/1.1/"
   xmlns:cc="http://creativecommons.org/ns#"
   xmlns:rdf="http://www.w3.org/1999/02/22-rdf-syntax-ns#"
   xmlns:svg="http://www.w3.org/2000/svg"
   xmlns="http://www.w3.org/2000/svg"
   viewBox="0 0 486.11868 400.05334"
   height="400.05334"
   width="486.11868"
   xml:space="preserve"
   id="svg2"
   version="1.1"><metadata
     id="metadata8"><rdf:RDF><cc:Work
         rdf:about=""><dc:format>image/svg+xml</dc:format><dc:type
           rdf:resource="http://purl.org/dc/dcmitype/StillImage" /></cc:Work></rdf:RDF></metadata><defs
     id="defs6"><clipPath
       id="clipPath18"
       clipPathUnits="userSpaceOnUse"><path
         id="path16"
         d="M 0,300.04 H 364.589 V 0 H 0 Z" /></clipPath></defs><g
     transform="matrix(1.3333333,0,0,-1.3333333,0,400.05333)"
     id="g10"><g
       id="g12"><g
         clip-path="url(#clipPath18)"
         id="g14"><g
           transform="translate(63.7687,142.8347)"
           id="g20"><path
             id="path22"
             style="fill:#020202;fill-opacity:1;fill-rule:nonzero;stroke:none"
             d="m 0,0 c -3.619,-1.076 -27.345,-29.866 -31.13,-34.911 -17.514,-23.35 -38.354,-60.33 -16.564,-87.393 27.658,-34.351 94.554,-18.096 129.931,-4.975 6.381,2.366 53.375,22.074 54.051,24.976 0.972,4.167 -9.142,6.696 -12.471,6.493 -8.393,-0.51 -22.328,-5.714 -31.495,-7.554 -26.025,-5.223 -59.723,-11.907 -85.568,-4.493 -37.543,10.771 -30.032,48.267 -15.498,75.559 3.412,6.407 15.888,22.485 15.056,28.909 C 5.914,-0.315 2.865,0.852 0,0 m 222.28,64.179 c 0.902,0.839 -6.54,19.419 -9.032,21.458 -6.849,5.601 -21.261,9.467 -30.015,8.089 C 161.903,90.367 112.931,59.535 96.27,44.688 93.22,41.969 85.269,35.104 86.43,30.896 86.846,29.388 98.382,17.389 101.326,18.568 137.83,41.761 178.225,61.827 222.28,64.179 m 17.657,-105.655 c 26.494,23.96 72.638,78.934 58.121,116.923 -3.481,9.109 -14.547,21.153 -25.03,19.491 -1.74,-0.276 -15.83,-5.317 -16.515,-5.993 -2.42,-2.39 -6.36,-21.399 -10.055,-25.535 -0.717,-4.487 7.638,-7.861 10.664,-12.902 15.158,-25.251 -7.615,-56.223 -22.423,-76.249 -2.522,-3.411 -18.003,-21.056 -18.257,-22.768 -0.174,-1.173 3.587,-7.898 6.152,-7.193 2.088,0.575 14.714,11.849 17.343,14.226 m -55.658,-32.345 c -1.372,-1.337 -11.894,5.378 -13.91,6.579 C 123.076,-39.066 69.53,6.346 33.771,48.16 31.688,50.595 18.167,67.279 18.369,68.543 c 0.236,1.478 2.232,2.114 3.489,2.549 7.35,2.542 26.949,-2.475 35.935,-2.907 5.359,-0.258 17.387,-0.991 13.514,7.517 l -135.018,57.466 c -0.708,-0.667 5.296,-10.753 6.195,-12.295 56.253,-96.542 144.172,-172.255 240.128,-227.871 19.905,-11.537 41.256,-20.695 60.178,-33.823 0.845,3.414 -1.657,8.54 -3.02,11.98 -16.873,42.554 -43.749,83.64 -62.289,125.712 -4.278,6.459 -8.786,8.531 -16.385,5.964 -3.806,-1.286 -4.278,-2.078 -3.726,-6.04 8.653,-23.644 20.457,-46.178 26.909,-70.616 m 97.007,183.985 c -0.462,0.435 -9.831,2.303 -12.266,3.246 -3.505,1.358 -18.827,7.607 -20.685,9.315 -5.155,4.739 -8.522,24.766 -11.99,32.01 -0.56,1.169 -0.861,2.666 -2.551,2.449 -2.753,-7.57 -7.907,-30.987 -12.963,-36.056 -5.317,-5.331 -35.591,-10.566 -35.557,-12.454 12.408,-3.57 24.491,-8.125 35.985,-14.025 6.5,-12.057 10.233,-25.232 13.52,-38.47 4.001,9.884 5.493,20.601 9.48,30.521 0.85,2.114 2.857,7.626 3.986,9.013 2.884,3.539 26.009,10.771 31.571,12.442 1.059,0.319 3.213,0.364 1.47,2.009" /></g><g
           transform="translate(63.7687,142.8347)"
           id="g24"><path
             id="path26"
             style="fill:#1f1f1f;fill-opacity:1;fill-rule:nonzero;stroke:none"
             d="M 0,0 C 2.865,0.852 5.914,-0.315 6.312,-3.389 7.144,-9.813 -5.332,-25.891 -8.744,-32.298 -23.278,-59.59 -30.789,-97.086 6.754,-107.857 c 25.845,-7.414 59.543,-0.73 85.568,4.493 9.167,1.84 23.102,7.044 31.495,7.554 3.329,0.203 13.443,-2.326 12.471,-6.493 -0.676,-2.902 -47.67,-22.61 -54.051,-24.976 -35.377,-13.121 -102.273,-29.376 -129.931,4.975 -21.79,27.063 -0.95,64.043 16.564,87.393 C -27.345,-29.866 -3.619,-1.076 0,0" /></g><g
           transform="translate(248.0482,69.0138)"
           id="g28"><path
             id="path30"
             style="fill:#fcfcfb;fill-opacity:1;fill-rule:nonzero;stroke:none"
             d="m 0,0 c -6.453,24.438 -18.257,46.972 -26.91,70.616 -0.552,3.962 -0.08,4.754 3.726,6.04 7.6,2.567 12.108,0.495 16.386,-5.965 C 11.741,28.62 38.618,-12.466 55.49,-55.02 c 1.364,-3.44 3.866,-8.567 3.02,-11.98 -18.921,13.128 -40.273,22.286 -60.177,33.822 -95.957,55.617 -183.875,131.33 -240.129,227.872 -0.899,1.542 -6.902,11.628 -6.194,12.295 l 135.018,-57.466 c 3.873,-8.508 -8.155,-7.775 -13.515,-7.518 -8.985,0.432 -28.584,5.449 -35.934,2.908 -1.257,-0.435 -3.253,-1.071 -3.489,-2.55 -0.202,-1.263 13.318,-17.947 15.401,-20.382 C -114.75,80.167 -61.204,34.755 -13.91,6.579 -11.895,5.378 -1.372,-1.338 0,0" /></g><g
           transform="translate(303.7052,101.3586)"
           id="g32"><path
             id="path34"
             style="fill:#fcfcfb;fill-opacity:1;fill-rule:nonzero;stroke:none"
             d="m 0,0 c -2.629,-2.377 -15.254,-13.651 -17.342,-14.225 -2.565,-0.706 -6.327,6.019 -6.153,7.193 0.254,1.711 15.735,19.356 18.258,22.767 14.808,20.026 37.581,50.998 22.423,76.249 -3.026,5.041 -11.381,8.415 -10.664,12.902 3.695,4.136 7.635,23.145 10.055,25.535 0.685,0.676 14.774,5.717 16.514,5.993 10.484,1.662 21.549,-10.382 25.03,-19.491 C 72.639,78.934 26.495,23.96 0,0" /></g><g
           transform="translate(286.0489,207.0136)"
           id="g36"><path
             id="path38"
             style="fill:#fcfcfb;fill-opacity:1;fill-rule:nonzero;stroke:none"
             d="m 0,0 c -44.055,-2.351 -84.451,-22.418 -120.954,-45.611 -2.944,-1.179 -14.48,10.82 -14.896,12.328 -1.161,4.208 6.789,11.074 9.84,13.792 16.66,14.847 65.633,45.679 86.963,49.038 8.754,1.378 23.166,-2.488 30.014,-8.089 C -6.54,19.42 0.902,0.839 0,0" /></g><g
           transform="translate(345.0544,252.9987)"
           id="g40"><path
             id="path42"
             style="fill:#fcfcfb;fill-opacity:1;fill-rule:nonzero;stroke:none"
             d="m 0,0 c 1.743,-1.645 -0.411,-1.69 -1.47,-2.009 -5.562,-1.671 -28.687,-8.903 -31.57,-12.442 -1.13,-1.387 -3.137,-6.899 -3.987,-9.013 -3.987,-9.92 -5.478,-20.637 -9.479,-30.521 -3.288,13.238 -7.021,26.413 -13.521,38.469 -11.494,5.901 -23.577,10.456 -35.984,14.026 -0.035,1.888 30.239,7.123 35.556,12.454 5.056,5.069 10.21,28.486 12.964,36.056 1.689,0.217 1.99,-1.28 2.55,-2.45 3.469,-7.243 6.836,-27.27 11.991,-32.009 1.857,-1.708 17.18,-7.957 20.685,-9.315 C -9.831,2.303 -0.461,0.435 0,0" /></g></g></g></g></svg>